<svg width="557" height="96" viewBox="0 0 557 96" fill="none" xmlns="http://www.w3.org/2000/svg">
<path d="M60.5931 69.9451H21.9787L13.3063 94H0.772463L35.9685 1.8319H46.6033L81.8627 94H69.3921L60.5931 69.9451ZM25.6503 59.9434H56.9849L41.2859 16.8345L25.6503 59.9434ZM137.746 61.4626H125.718V94H103.499V1.8319H139.772C150.702 1.8319 159.248 4.25849 165.409 9.11166C171.57 13.9648 174.651 20.8226 174.651 29.6849C174.651 36.0995 173.343 41.4169 170.726 45.6371C168.152 49.8572 164.101 53.2755 158.572 55.892L177.816 93.0505V94H154.015L137.746 61.4626ZM125.718 44.3077H139.772C143.992 44.3077 147.157 43.2105 149.267 41.016C151.419 38.7793 152.495 35.6775 152.495 31.7106C152.495 27.7436 151.419 24.6418 149.267 22.4051C147.115 20.1263 143.95 18.9868 139.772 18.9868H125.718V44.3077ZM268.452 11.8337H238.827V94H226.736V11.8337H197.174V1.8319H268.452V11.8337ZM338.895 69.502C338.895 66.2525 337.735 63.7204 335.414 61.9058C333.135 60.0911 329.104 58.2131 323.323 56.2719C317.541 54.3306 312.815 52.4526 309.143 50.6379C297.2 44.7719 291.229 36.7115 291.229 26.4565C291.229 21.3501 292.706 16.8556 295.66 12.9731C298.656 9.04836 302.876 6.00985 308.32 3.85758C313.764 1.6631 319.883 0.565859 326.678 0.565859C333.303 0.565859 339.233 1.7475 344.466 4.11079C349.741 6.47407 353.835 9.85019 356.746 14.2391C359.658 18.5859 361.114 23.5657 361.114 29.1785H338.958C338.958 25.4225 337.798 22.5106 335.477 20.4428C333.198 18.3749 330.096 17.341 326.171 17.341C322.204 17.341 319.06 18.2272 316.739 19.9997C314.461 21.7299 313.321 23.9455 313.321 26.6464C313.321 29.0097 314.587 31.162 317.119 33.1032C319.651 35.0023 324.104 36.9858 330.476 39.0536C336.848 41.0793 342.081 43.2738 346.175 45.6371C356.135 51.3765 361.114 59.2893 361.114 69.3754C361.114 77.4359 358.076 83.7661 351.999 88.3661C345.922 92.9661 337.587 95.266 326.994 95.266C319.525 95.266 312.751 93.9367 306.674 91.278C300.64 88.5771 296.082 84.9056 293.001 80.2634C289.963 75.579 288.443 70.1983 288.443 64.1213H310.726C310.726 69.0589 311.992 72.7093 314.524 75.0726C317.098 77.3937 321.255 78.5542 326.994 78.5542C330.666 78.5542 333.557 77.7735 335.667 76.2121C337.819 74.6084 338.895 72.3717 338.895 69.502ZM421.239 68.9323L439.596 1.8319H464.411L433.393 94H409.085L378.32 1.8319H402.944L421.239 68.9323ZM506.368 62.7287V94H484.149V1.8319H520.927C527.975 1.8319 534.2 3.14015 539.601 5.75664C545.045 8.33094 549.244 12.0236 552.198 16.8345C555.195 21.6033 556.693 27.0262 556.693 33.1032C556.693 42.0921 553.465 49.2875 547.008 54.6893C540.593 60.0489 531.773 62.7287 520.547 62.7287H506.368ZM506.368 45.5738H520.927C525.232 45.5738 528.502 44.4976 530.739 42.3454C533.018 40.1931 534.157 37.1546 534.157 33.2298C534.157 28.9253 532.997 25.4859 530.676 22.9116C528.355 20.3373 525.19 19.029 521.18 18.9868H506.368V45.5738Z" fill="white"/>
</svg>
